{
  "source": "C:\\Users\\Peter\\Desktop\\stuff\\MIUN\\quantitative_research\\video_compression\\videos\\BVI-HD\\BVI-HD_CDVL_videos\\ORIG\\BubblesPitcher_1920x1080_60fps.mp4",
  "output": "C:\\Users\\Peter\\Desktop\\stuff\\MIUN\\quantitative_research\\video_compression\\compressed_videos\\BVI-HD\\vp9\\2\\BubblesPitcher_1920x1080_60fps_vp9.webm",
  "codec": "vp9",
  "ok": "Input #0, mov,mp4,m4a,3gp,3g2,mj2, from 'C:\\Users\\Peter\\Desktop\\stuff\\MIUN\\quantitative_research\\video_compression\\videos\\BVI-HD\\BVI-HD_CDVL_videos\\ORIG\\BubblesPitcher_1920x1080_60fps.mp4':\n  Metadata:\n    major_brand     : isom\n    minor_version   : 512\n    compatible_brands: isomiso2avc1mp41\n    encoder         : Lavf54.28.101\n  Duration: 00:00:05.00, start: 0.000000, bitrate: 188849 kb/s\n  Stream #0:0[0x1](und): Video: h264 (High 4:4:4 Predictive) (avc1 / 0x31637661), yuv420p(progressive), 1920x1080, 188844 kb/s, 60 fps, 60 tbr, 60 tbn (default)\n    Metadata:\n      handler_name    : VideoHandler\n      vendor_id       : [0][0][0][0]\n[out#0/webm @ 000002d59b32cc80] Codec AVOption b:a (set bitrate (in bits/s)) has not been used for any stream. The most likely reason is either wrong type (e.g. a video option with no video streams) or that it is a private option of some decoder which was not actually used for any stream.\nStream mapping:\n  Stream #0:0 -> #0:0 (h264 (native) -> vp9 (libvpx-vp9))\nPress [q] to stop, [?] for help\n[libvpx-vp9 @ 000002d59b825480] v1.15.2-100-g40561f514\nOutput #0, webm, to 'C:\\Users\\Peter\\Desktop\\stuff\\MIUN\\quantitative_research\\video_compression\\compressed_videos\\BVI-HD\\vp9\\2\\BubblesPitcher_1920x1080_60fps_vp9.webm':\n  Metadata:\n    major_brand     : isom\n    minor_version   : 512\n    compatible_brands: isomiso2avc1mp41\n    encoder         : Lavf62.3.100\n  Stream #0:0(und): Video: vp9, yuv420p(tv, progressive), 1920x1080, q=2-31, 2000 kb/s, 60 fps, 1k tbn (default)\n    Metadata:\n      encoder         : Lavc62.11.100 libvpx-vp9\n      handler_name    : VideoHandler\n      vendor_id       : [0][0][0][0]\n    Side data:\n      cpb: bitrate max/min/avg: 0/0/0 buffer size: 2000000 vbv_delay: N/A\nframe=    6 fps=0.0 q=36.0 size=       1KiB time=00:00:00.10 bitrate=  50.6kbits/s speed=0.198x elapsed=0:00:00.50    \nframe=   14 fps= 14 q=26.0 size=       1KiB time=00:00:00.23 bitrate=  21.7kbits/s speed=0.228x elapsed=0:00:01.02    \nframe=   20 fps= 13 q=29.0 size=       1KiB time=00:00:00.33 bitrate=  15.2kbits/s speed=0.211x elapsed=0:00:01.57    \nframe=   24 fps= 11 q=31.0 size=       1KiB time=00:00:00.40 bitrate=  12.7kbits/s speed=0.189x elapsed=0:00:02.12    \nframe=   28 fps= 11 q=33.0 size=       1KiB time=00:00:00.46 bitrate=  10.9kbits/s speed=0.175x elapsed=0:00:02.66    \nframe=   36 fps= 11 q=38.0 size=       1KiB time=00:00:00.60 bitrate=   8.4kbits/s speed=0.185x elapsed=0:00:03.23    \nframe=   44 fps= 12 q=37.0 size=       1KiB time=00:00:00.73 bitrate=   6.9kbits/s speed=0.194x elapsed=0:00:03.77    \nframe=   50 fps= 12 q=39.0 size=       1KiB time=00:00:00.83 bitrate=   6.1kbits/s speed=0.194x elapsed=0:00:04.30    \nframe=   58 fps= 12 q=40.0 size=       1KiB time=00:00:00.96 bitrate=   5.2kbits/s speed= 0.2x elapsed=0:00:04.82    \nframe=   64 fps= 12 q=39.0 size=       1KiB time=00:00:01.06 bitrate=   4.7kbits/s speed=0.199x elapsed=0:00:05.35    \nframe=   71 fps= 12 q=39.0 size=       1KiB time=00:00:01.18 bitrate=   4.3kbits/s speed=0.201x elapsed=0:00:05.87    \nframe=   78 fps= 12 q=40.0 size=       1KiB time=00:00:01.30 bitrate=   3.9kbits/s speed=0.202x elapsed=0:00:06.42    \nframe=   84 fps= 12 q=41.0 size=       1KiB time=00:00:01.40 bitrate=   3.6kbits/s speed= 0.2x elapsed=0:00:06.99    \nframe=   90 fps= 12 q=41.0 size=       1KiB time=00:00:01.50 bitrate=   3.4kbits/s speed=0.199x elapsed=0:00:07.53    \nframe=   96 fps= 12 q=41.0 size=       1KiB time=00:00:01.60 bitrate=   3.2kbits/s speed=0.198x elapsed=0:00:08.07    \nframe=  101 fps= 12 q=42.0 size=       1KiB time=00:00:01.68 bitrate=   3.0kbits/s speed=0.195x elapsed=0:00:08.62    \nframe=  105 fps= 11 q=43.0 size=       1KiB time=00:00:01.73 bitrate=   2.9kbits/s speed=0.19x elapsed=0:00:09.13    \nframe=  109 fps= 11 q=28.0 size=       1KiB time=00:00:01.81 bitrate=   2.8kbits/s speed=0.187x elapsed=0:00:09.71    \nframe=  114 fps= 11 q=42.0 size=       1KiB time=00:00:01.90 bitrate=   2.7kbits/s speed=0.185x elapsed=0:00:10.25    \nframe=  118 fps= 11 q=41.0 size=       1KiB time=00:00:01.96 bitrate=   2.6kbits/s speed=0.182x elapsed=0:00:10.81    \nframe=  123 fps= 11 q=40.0 size=       1KiB time=00:00:02.05 bitrate=   2.5kbits/s speed=0.18x elapsed=0:00:11.39    \nframe=  127 fps= 11 q=42.0 size=       1KiB time=00:00:02.11 bitrate=   2.4kbits/s speed=0.177x elapsed=0:00:11.96    \nframe=  132 fps= 11 q=47.0 size=     256KiB time=00:00:02.20 bitrate= 953.3kbits/s speed=0.176x elapsed=0:00:12.50    \nframe=  137 fps= 10 q=51.0 size=     256KiB time=00:00:02.26 bitrate= 925.2kbits/s speed=0.173x elapsed=0:00:13.07    \nframe=  140 fps= 10 q=35.0 size=     256KiB time=00:00:02.33 bitrate= 898.8kbits/s speed=0.171x elapsed=0:00:13.64    \nframe=  144 fps= 10 q=53.0 size=     256KiB time=00:00:02.40 bitrate= 873.8kbits/s speed=0.169x elapsed=0:00:14.20    \nframe=  148 fps= 10 q=55.0 size=     256KiB time=00:00:02.46 bitrate= 850.2kbits/s speed=0.167x elapsed=0:00:14.75    \nframe=  152 fps=9.9 q=39.0 size=     256KiB time=00:00:02.51 bitrate= 833.3kbits/s speed=0.164x elapsed=0:00:15.31    \nframe=  155 fps=9.7 q=56.0 size=     256KiB time=00:00:02.58 bitrate= 811.8kbits/s speed=0.162x elapsed=0:00:15.98    \nframe=  158 fps=9.5 q=57.0 size=     256KiB time=00:00:02.63 bitrate= 796.4kbits/s speed=0.159x elapsed=0:00:16.58    \nframe=  161 fps=9.4 q=57.0 size=     256KiB time=00:00:02.68 bitrate= 781.5kbits/s speed=0.156x elapsed=0:00:17.16    \nframe=  165 fps=9.3 q=60.0 size=     256KiB time=00:00:02.73 bitrate= 767.3kbits/s speed=0.154x elapsed=0:00:17.75    \nframe=  168 fps=9.1 q=60.0 size=     256KiB time=00:00:02.78 bitrate= 753.5kbits/s speed=0.151x elapsed=0:00:18.46    \nframe=  170 fps=8.9 q=44.0 size=     256KiB time=00:00:02.83 bitrate= 740.2kbits/s speed=0.149x elapsed=0:00:19.06    \nframe=  173 fps=8.8 q=59.0 size=     256KiB time=00:00:02.88 bitrate= 727.3kbits/s speed=0.147x elapsed=0:00:19.64    \nframe=  176 fps=8.7 q=60.0 size=     256KiB time=00:00:02.93 bitrate= 714.9kbits/s speed=0.145x elapsed=0:00:20.22    \nframe=  179 fps=8.6 q=61.0 size=     256KiB time=00:00:02.96 bitrate= 706.9kbits/s speed=0.143x elapsed=0:00:20.75    \nframe=  181 fps=8.4 q=61.0 size=     256KiB time=00:00:03.01 bitrate= 695.2kbits/s speed=0.141x elapsed=0:00:21.46    \nframe=  184 fps=8.3 q=63.0 size=     256KiB time=00:00:03.06 bitrate= 683.9kbits/s speed=0.138x elapsed=0:00:22.15    \nframe=  187 fps=8.2 q=62.0 size=     256KiB time=00:00:03.11 bitrate= 672.9kbits/s speed=0.137x elapsed=0:00:22.70    \nframe=  189 fps=8.1 q=62.0 size=     256KiB time=00:00:03.15 bitrate= 665.8kbits/s speed=0.135x elapsed=0:00:23.28    \nframe=  192 fps=8.1 q=63.0 size=     256KiB time=00:00:03.18 bitrate= 658.8kbits/s speed=0.134x elapsed=0:00:23.82    \nframe=  194 fps=7.9 q=49.0 size=     256KiB time=00:00:03.21 bitrate= 652.0kbits/s speed=0.131x elapsed=0:00:24.55    \nframe=  196 fps=7.8 q=63.0 size=     256KiB time=00:00:03.26 bitrate= 642.0kbits/s speed=0.129x elapsed=0:00:25.25    \nframe=  199 fps=7.7 q=63.0 size=     256KiB time=00:00:03.31 bitrate= 632.3kbits/s speed=0.129x elapsed=0:00:25.79    \nframe=  201 fps=7.6 q=63.0 size=     256KiB time=00:00:03.35 bitrate= 626.0kbits/s speed=0.127x elapsed=0:00:26.41    \nframe=  204 fps=7.5 q=63.0 size=     256KiB time=00:00:03.38 bitrate= 619.8kbits/s speed=0.125x elapsed=0:00:27.14    \nframe=  205 fps=7.4 q=63.0 size=     256KiB time=00:00:03.41 bitrate= 613.8kbits/s speed=0.123x elapsed=0:00:27.85    \nframe=  208 fps=7.3 q=63.0 size=     256KiB time=00:00:03.46 bitrate= 604.9kbits/s speed=0.121x elapsed=0:00:28.56    \nframe=  211 fps=7.2 q=63.0 size=     256KiB time=00:00:03.51 bitrate= 596.3kbits/s speed=0.121x elapsed=0:00:29.14    \nframe=  214 fps=7.2 q=63.0 size=     256KiB time=00:00:03.55 bitrate= 590.7kbits/s speed=0.119x elapsed=0:00:29.74    \nframe=  216 fps=7.1 q=63.0 size=     256KiB time=00:00:03.60 bitrate= 582.5kbits/s speed=0.118x elapsed=0:00:30.48    \nframe=  218 fps=7.0 q=51.0 size=     256KiB time=00:00:03.63 bitrate= 577.2kbits/s speed=0.116x elapsed=0:00:31.20    \nframe=  221 fps=6.9 q=63.0 size=     256KiB time=00:00:03.66 bitrate= 572.0kbits/s speed=0.115x elapsed=0:00:31.91    \nframe=  223 fps=6.9 q=63.0 size=     256KiB time=00:00:03.71 bitrate= 564.3kbits/s speed=0.114x elapsed=0:00:32.54    \nframe=  226 fps=6.8 q=63.0 size=     256KiB time=00:00:03.76 bitrate= 556.8kbits/s speed=0.114x elapsed=0:00:33.12    \nframe=  229 fps=6.8 q=63.0 size=     256KiB time=00:00:03.81 bitrate= 549.5kbits/s speed=0.113x elapsed=0:00:33.69    \nframe=  231 fps=6.7 q=63.0 size=     256KiB time=00:00:03.85 bitrate= 544.7kbits/s speed=0.112x elapsed=0:00:34.42    \nframe=  234 fps=6.7 q=63.0 size=     256KiB time=00:00:03.88 bitrate= 540.0kbits/s speed=0.111x elapsed=0:00:35.12    \nframe=  236 fps=6.6 q=51.0 size=     256KiB time=00:00:03.91 bitrate= 535.4kbits/s speed=0.109x elapsed=0:00:35.78    \nframe=  239 fps=6.6 q=63.0 size=     256KiB time=00:00:03.98 bitrate= 526.5kbits/s speed=0.109x elapsed=0:00:36.44    \nframe=  241 fps=6.5 q=63.0 size=     256KiB time=00:00:04.01 bitrate= 522.1kbits/s speed=0.109x elapsed=0:00:36.99    \nframe=  245 fps=6.5 q=63.0 size=     256KiB time=00:00:04.06 bitrate= 515.7kbits/s speed=0.108x elapsed=0:00:37.59    \nframe=  247 fps=6.4 q=63.0 size=     256KiB time=00:00:04.11 bitrate= 509.4kbits/s speed=0.107x elapsed=0:00:38.33    \nframe=  249 fps=6.4 q=61.0 size=     256KiB time=00:00:04.15 bitrate= 505.3kbits/s speed=0.106x elapsed=0:00:39.07    \nframe=  252 fps=6.3 q=62.0 size=     256KiB time=00:00:04.18 bitrate= 501.3kbits/s speed=0.105x elapsed=0:00:39.76    \nframe=  254 fps=6.3 q=62.0 size=     256KiB time=00:00:04.23 bitrate= 495.4kbits/s speed=0.105x elapsed=0:00:40.34    \nframe=  256 fps=6.3 q=62.0 size=     256KiB time=00:00:04.26 bitrate= 491.5kbits/s speed=0.104x elapsed=0:00:40.87    \nframe=  261 fps=6.3 q=63.0 size=     768KiB time=00:00:04.35 bitrate=1446.3kbits/s speed=0.105x elapsed=0:00:41.43    \nframe=  264 fps=6.3 q=60.0 size=     768KiB time=00:00:04.38 bitrate=1435.3kbits/s speed=0.104x elapsed=0:00:42.12    \nframe=  266 fps=6.2 q=62.0 size=     768KiB time=00:00:04.41 bitrate=1424.5kbits/s speed=0.103x elapsed=0:00:42.78    \nframe=  268 fps=6.2 q=62.0 size=     768KiB time=00:00:04.46 bitrate=1408.5kbits/s speed=0.103x elapsed=0:00:43.45    \nframe=  271 fps=6.2 q=62.0 size=     768KiB time=00:00:04.51 bitrate=1392.9kbits/s speed=0.103x elapsed=0:00:44.02    \nframe=  274 fps=6.1 q=62.0 size=     768KiB time=00:00:04.56 bitrate=1377.7kbits/s speed=0.102x elapsed=0:00:44.57    \nframe=  276 fps=6.1 q=63.0 size=     768KiB time=00:00:04.60 bitrate=1367.7kbits/s speed=0.102x elapsed=0:00:45.12    \nframe=  276 fps=6.0 q=63.0 size=     768KiB time=00:00:04.60 bitrate=1367.7kbits/s speed=0.101x elapsed=0:00:45.69    \nframe=  276 fps=6.0 q=63.0 size=     768KiB time=00:00:04.60 bitrate=1367.7kbits/s speed=0.0992x elapsed=0:00:46.38    \nframe=  276 fps=5.9 q=63.0 size=     768KiB time=00:00:04.60 bitrate=1367.7kbits/s speed=0.0978x elapsed=0:00:47.05    \nframe=  276 fps=5.8 q=63.0 size=     768KiB time=00:00:04.60 bitrate=1367.7kbits/s speed=0.0964x elapsed=0:00:47.71    \nframe=  276 fps=5.7 q=63.0 size=     768KiB time=00:00:04.60 bitrate=1367.7kbits/s speed=0.0953x elapsed=0:00:48.27    \nframe=  276 fps=5.6 q=63.0 size=     768KiB time=00:00:04.60 bitrate=1367.7kbits/s speed=0.0941x elapsed=0:00:48.90    \nframe=  276 fps=5.6 q=63.0 size=     768KiB time=00:00:04.60 bitrate=1367.7kbits/s speed=0.0929x elapsed=0:00:49.48    \nframe=  276 fps=5.5 q=63.0 size=     768KiB time=00:00:04.60 bitrate=1367.7kbits/s speed=0.0917x elapsed=0:00:50.14    \n[out#0/webm @ 000002d59b32cc80] video:1119KiB audio:0KiB subtitle:0KiB other streams:0KiB global headers:0KiB muxing overhead: 0.246319%\nframe=  300 fps=5.9 q=63.0 Lsize=    1122KiB time=00:00:05.00 bitrate=1838.2kbits/s speed=0.0988x elapsed=0:00:50.60    \n",
  "seconds": 51.01449918746948,
  "probe_out": {}
}